<?xml version="1.0" standalone="no"?><!DOCTYPE svg PUBLIC "-//W3C//DTD SVG 1.1//EN" "http://www.w3.org/Graphics/SVG/1.1/DTD/svg11.dtd"><svg t="1758617426195" class="icon" viewBox="0 0 1024 1024" version="1.1" xmlns="http://www.w3.org/2000/svg" p-id="16148" xmlns:xlink="http://www.w3.org/1999/xlink" width="200" height="200"><path d="M810.666667 554.666667a85.333333 85.333333 0 0 1 85.333333 85.333333v170.666667a85.333333 85.333333 0 0 1-85.333333 85.333333h-170.666667a85.333333 85.333333 0 0 1-85.333333-85.333333v-170.666667a85.333333 85.333333 0 0 1 85.333333-85.333333h170.666667zM384 554.666667a85.333333 85.333333 0 0 1 85.333333 85.333333v170.666667a85.333333 85.333333 0 0 1-85.333333 85.333333H213.333333a85.333333 85.333333 0 0 1-85.333333-85.333333v-170.666667a85.333333 85.333333 0 0 1 85.333333-85.333333h170.666667z m426.666667 64h-170.666667a21.333333 21.333333 0 0 0-20.992 17.493333L618.666667 640v170.666667a21.333333 21.333333 0 0 0 17.493333 20.992l3.84 0.341333h170.666667a21.333333 21.333333 0 0 0 20.992-17.493333L832 810.666667v-170.666667a21.333333 21.333333 0 0 0-17.493333-20.992L810.666667 618.666667zM384 128a85.333333 85.333333 0 0 1 85.333333 85.333333v170.666667a85.333333 85.333333 0 0 1-85.333333 85.333333H213.333333a85.333333 85.333333 0 0 1-85.333333-85.333333V213.333333a85.333333 85.333333 0 0 1 85.333333-85.333333h170.666667z m426.666667 0a85.333333 85.333333 0 0 1 85.333333 85.333333v170.666667a85.333333 85.333333 0 0 1-85.333333 85.333333h-170.666667a85.333333 85.333333 0 0 1-85.333333-85.333333V213.333333a85.333333 85.333333 0 0 1 85.333333-85.333333h170.666667z" fill="#FF5722" p-id="16149"></path></svg>