<?xml version="1.0" standalone="no"?><!DOCTYPE svg PUBLIC "-//W3C//DTD SVG 1.1//EN" "http://www.w3.org/Graphics/SVG/1.1/DTD/svg11.dtd"><svg t="1758620505641" class="icon" viewBox="0 0 1024 1024" version="1.1" xmlns="http://www.w3.org/2000/svg" p-id="1108" xmlns:xlink="http://www.w3.org/1999/xlink" width="200" height="200"><path d="M499.2 806.4c-209.066667 0-384-170.666667-384-384 0-209.066667 170.666667-384 384-384s384 170.666667 384 384-174.933333 384-384 384z m0-708.266667C320 98.133333 170.666667 243.2 170.666667 426.666667c0 179.2 149.333333 328.533333 328.533333 328.533333s328.533333-149.333333 328.533333-328.533333c0-183.466667-149.333333-328.533333-328.533333-328.533334z" fill="#6A3906" p-id="1109"></path><path d="M499.2 426.666667m-264.533333 0a264.533333 264.533333 0 1 0 529.066666 0 264.533333 264.533333 0 1 0-529.066666 0Z" fill="#F5CB2B" p-id="1110"></path><path d="M832 947.2l-110.933333-128c-8.533333-12.8-8.533333-29.866667 4.266666-42.666667l4.266667-4.266666c12.8-8.533333 29.866667-8.533333 42.666667 4.266666l110.933333 128c8.533333 12.8 8.533333 29.866667-4.266667 42.666667l-4.266666 4.266667c-17.066667 8.533333-34.133333 8.533333-42.666667-4.266667z" fill="#6A3906" p-id="1111"></path></svg>